<svg xmlns="http://www.w3.org/2000/svg" width="32" height="32" viewBox="0 0 32 32" fill="none">
<g clip-path="url(#clip0_317_40)">
<path d="M16.0371 16.0001C16.0371 13.0546 18.4249 10.6667 21.3704 10.6667C24.3159 10.6667 26.7037 13.0546 26.7037 16.0001C26.7037 18.9456 24.3159 21.3334 21.3704 21.3334C18.4249 21.3334 16.0371 18.9456 16.0371 16.0001Z" fill="#00BCFF"/>
<path d="M5.37109 26.6666C5.37109 23.7211 7.75891 21.3333 10.7044 21.3333L13.5466 19.8328L16.0377 21.3333V26.6666C16.0377 29.6122 13.6499 32 10.7044 32C7.75891 32 5.37109 29.6121 5.37109 26.6666Z" fill="#00CF7F"/>
<path d="M16.0379 0L13.1357 5.04187L16.0379 10.6666H21.2964C24.2419 10.6666 26.6297 8.27881 26.6297 5.33331C26.6297 2.38781 24.2419 0 21.2964 0H16.0379Z" fill="#FF7361"/>
<path d="M5.2959 5.33331C5.2959 8.27881 7.68371 10.6666 10.6292 10.6666L13.4584 11.7594L16.0373 10.6666V0H10.6291C7.68371 0 5.2959 2.38781 5.2959 5.33331Z" fill="#FF4D12"/>
<path d="M5.37109 16C5.37109 18.9456 7.75891 21.3333 10.7044 21.3333H16.0377V10.6666H10.7044C7.75891 10.6666 5.37109 13.0545 5.37109 16Z" fill="#B659FF"/>
</g>
<defs>
<clipPath id="clip0_317_40">
<rect width="32" height="32" fill="white"/>
</clipPath>
</defs>
</svg>